<?xml version="1.0" encoding="UTF-8"?>
<!DOCTYPE svg PUBLIC "-//W3C//DTD SVG 1.1//EN" "http://www.w3.org/Graphics/SVG/1.1/DTD/svg11.dtd">
<svg xmlns="http://www.w3.org/2000/svg" version="1.1" width="72px" height="72px" style="shape-rendering:geometricPrecision; text-rendering:geometricPrecision; image-rendering:optimizeQuality; fill-rule:evenodd; clip-rule:evenodd" xmlns:xlink="http://www.w3.org/1999/xlink">
<g><path style="opacity:0.918" fill="#fbd5fa" d="M 11.5,-0.5 C 27.5,-0.5 43.5,-0.5 59.5,-0.5C 60.8333,0.166667 62.1667,0.833333 63.5,1.5C 44.8333,1.5 26.1667,1.5 7.5,1.5C 8.83333,0.833333 10.1667,0.166667 11.5,-0.5 Z"/></g>
<g><path style="opacity:1" fill="#f593fc" d="M 7.5,1.5 C 26.1667,1.5 44.8333,1.5 63.5,1.5C 66.1894,2.18936 67.8561,3.85603 68.5,6.5C 66.5915,6.11656 65.0915,5.11656 64,3.5C 63.0934,5.60908 61.5934,6.94241 59.5,7.5C 57.7274,8.31431 57.2274,9.64764 58,11.5C 59.4902,12.7279 60.9902,12.7279 62.5,11.5C 61.1722,13.7446 59.3388,14.0779 57,12.5C 55.8002,16.7646 53.6335,17.4312 50.5,14.5C 49.8933,14.6236 49.56,14.9569 49.5,15.5C 40.6885,10.5616 31.6885,10.2283 22.5,14.5C 22.44,13.9569 22.1067,13.6236 21.5,13.5C 20.1502,14.9501 18.4835,15.6168 16.5,15.5C 14.2742,11.3753 12.2742,7.04194 10.5,2.5C 9.83333,4.16667 9.16667,5.83333 8.5,7.5C 7.25278,5.99362 7.25278,4.49362 8.5,3C 6.81069,3.1343 5.14402,3.6343 3.5,4.5C 4.26231,2.73758 5.59565,1.73758 7.5,1.5 Z"/></g>
<g><path style="opacity:1" fill="#faa1fe" d="M 23.5,2.5 C 31.1739,2.33365 38.8406,2.50031 46.5,3C 47.5156,3.51935 48.1822,4.35268 48.5,5.5C 47.6961,7.13601 46.6961,8.63601 45.5,10C 46.1667,10.3333 46.8333,10.6667 47.5,11C 40.2524,9.47694 32.9191,9.14361 25.5,10C 22.3782,8.24508 21.7116,5.74508 23.5,2.5 Z"/></g>
<g><path style="opacity:1" fill="#e889f8" d="M 16.5,19.5 C 15.1535,21.5368 13.8202,23.5368 12.5,25.5C 12.2914,24.0783 11.7914,22.745 11,21.5C 6.86722,17.3672 3.53388,14.0339 1,11.5C 0.500069,27.8299 0.333403,44.1633 0.5,60.5C 0.166667,60.5 -0.166667,60.5 -0.5,60.5C -0.5,43.5 -0.5,26.5 -0.5,9.5C 0.166667,8.83333 0.833333,8.16667 1.5,7.5C 3.5065,6.32148 3.83984,6.82148 2.5,9C 4.74426,11.3486 5.91093,10.8486 6,7.5C 8.04348,10.7121 9.87682,14.0454 11.5,17.5C 13.3361,18.0276 15.0028,18.6942 16.5,19.5 Z"/></g>
<g><path style="opacity:1" fill="#787294" d="M 59.5,7.5 C 61.9118,7.69408 62.9118,9.02741 62.5,11.5C 60.9902,12.7279 59.4902,12.7279 58,11.5C 57.2274,9.64764 57.7274,8.31431 59.5,7.5 Z"/></g>
<g><path style="opacity:1" fill="#e770fa" d="M 68.5,6.5 C 69.3382,6.84171 69.6716,7.50838 69.5,8.5C 69.5,8.83333 69.5,9.16667 69.5,9.5C 68.6618,9.84171 68.3284,10.5084 68.5,11.5C 66.5438,14.5389 64.2105,17.3722 61.5,20C 59.256,20.0496 57.5893,20.8829 56.5,22.5C 54.5272,19.8605 52.1939,17.5272 49.5,15.5C 49.56,14.9569 49.8933,14.6236 50.5,14.5C 53.6335,17.4312 55.8002,16.7646 57,12.5C 59.3388,14.0779 61.1722,13.7446 62.5,11.5C 62.9118,9.02741 61.9118,7.69408 59.5,7.5C 61.5934,6.94241 63.0934,5.60908 64,3.5C 65.0915,5.11656 66.5915,6.11656 68.5,6.5 Z"/></g>
<g><path style="opacity:1" fill="#ec7efc" d="M 22.5,14.5 C 20.5,16.1667 18.5,17.8333 16.5,19.5C 15.0028,18.6942 13.3361,18.0276 11.5,17.5C 9.87682,14.0454 8.04348,10.7121 6,7.5C 5.91093,10.8486 4.74426,11.3486 2.5,9C 3.83984,6.82148 3.5065,6.32148 1.5,7.5C 1.42702,5.97306 2.09368,4.97306 3.5,4.5C 5.14402,3.6343 6.81069,3.1343 8.5,3C 7.25278,4.49362 7.25278,5.99362 8.5,7.5C 9.16667,5.83333 9.83333,4.16667 10.5,2.5C 12.2742,7.04194 14.2742,11.3753 16.5,15.5C 18.4835,15.6168 20.1502,14.9501 21.5,13.5C 22.1067,13.6236 22.44,13.9569 22.5,14.5 Z"/></g>
<g><path style="opacity:1" fill="#5e5d67" d="M 49.5,15.5 C 52.1939,17.5272 54.5272,19.8605 56.5,22.5C 58.0951,25.2854 59.0951,28.2854 59.5,31.5C 58.6909,33.2922 58.1909,35.2922 58,37.5C 56.2835,36.4477 55.2835,37.1144 55,39.5C 54.8195,36.3054 54.3195,33.3054 53.5,30.5C 49.293,19.5568 41.293,15.0568 29.5,17C 21.6007,19.7285 17.2673,25.2285 16.5,33.5C 15.8365,35.0419 15.1698,36.7086 14.5,38.5C 13.0473,35.5753 12.0473,32.5753 11.5,29.5C 11.4326,28.0413 11.7659,26.7079 12.5,25.5C 13.8202,23.5368 15.1535,21.5368 16.5,19.5C 18.5,17.8333 20.5,16.1667 22.5,14.5C 31.6885,10.2283 40.6885,10.5616 49.5,15.5 Z"/></g>
<g><path style="opacity:1" fill="#d34cf0" d="M 68.5,11.5 C 68.8323,23.5185 68.499,35.5185 67.5,47.5C 63.473,46.0482 60.8064,43.3815 59.5,39.5C 59.5,36.8333 59.5,34.1667 59.5,31.5C 59.0951,28.2854 58.0951,25.2854 56.5,22.5C 57.5893,20.8829 59.256,20.0496 61.5,20C 64.2105,17.3722 66.5438,14.5389 68.5,11.5 Z"/></g>
<g><path style="opacity:1" fill="#13141a" d="M 53.5,30.5 C 51.1667,26.8333 48.1667,23.8333 44.5,21.5C 43.1052,19.6997 41.4385,19.3664 39.5,20.5C 43.3779,21.8847 43.3779,23.0514 39.5,24C 42.195,27.3635 41.8617,30.5301 38.5,33.5C 39.4911,34.6652 40.4911,35.8319 41.5,37C 40.4196,38.4553 40.4196,39.9553 41.5,41.5C 38.315,44.4695 34.6483,45.1362 30.5,43.5C 30.5,43.1667 30.5,42.8333 30.5,42.5C 32.1714,37.195 32.8381,31.8616 32.5,26.5C 32.9481,23.7672 34.2814,21.6006 36.5,20C 34.1806,18.2721 31.8473,18.1054 29.5,19.5C 24.8955,21.1053 21.5622,24.1053 19.5,28.5C 18.7784,28.9175 18.2784,29.5842 18,30.5C 17.5026,33.146 17.3359,35.8127 17.5,38.5C 16.5489,37.0813 16.2155,35.4147 16.5,33.5C 17.2673,25.2285 21.6007,19.7285 29.5,17C 41.293,15.0568 49.293,19.5568 53.5,30.5 Z"/></g>
<g><path style="opacity:1" fill="#d147f2" d="M 12.5,25.5 C 11.7659,26.7079 11.4326,28.0413 11.5,29.5C 10.1297,34.8033 10.463,40.1366 12.5,45.5C 7.89002,48.6965 4.72335,53.0298 3,58.5C 2.66667,57.8333 2.33333,57.1667 2,56.5C 1.02051,60.2303 2.18718,63.0636 5.5,65C 4.74756,65.6708 4.41423,66.5041 4.5,67.5C 1.88814,65.9478 0.554806,63.6145 0.5,60.5C 0.333403,44.1633 0.500069,27.8299 1,11.5C 3.53388,14.0339 6.86722,17.3672 11,21.5C 11.7914,22.745 12.2914,24.0783 12.5,25.5 Z"/></g>
<g><path style="opacity:0.997" fill="#f0f8fc" d="M 29.5,19.5 C 30.6129,20.9464 30.7796,22.6131 30,24.5C 28.955,25.3734 28.1217,26.3734 27.5,27.5C 26.5,28.1667 25.5,28.8333 24.5,29.5C 23.3052,29.6775 22.1385,30.0109 21,30.5C 19.9701,30.1639 19.4701,29.4972 19.5,28.5C 21.5622,24.1053 24.8955,21.1053 29.5,19.5 Z"/></g>
<g><path style="opacity:1" fill="#4f6889" d="M 29.5,19.5 C 31.8473,18.1054 34.1806,18.2721 36.5,20C 34.2814,21.6006 32.9481,23.7672 32.5,26.5C 32.4156,29.213 30.9156,31.5463 28,33.5C 27.3333,35.8333 27.3333,38.1667 28,40.5C 28.7083,41.3805 29.5416,42.0472 30.5,42.5C 30.5,42.8333 30.5,43.1667 30.5,43.5C 28.9826,43.4894 27.8159,42.8228 27,41.5C 26.6012,41.7284 26.4346,42.0618 26.5,42.5C 25.8761,42.0831 25.5427,41.4164 25.5,40.5C 26.168,36.1478 26.8346,31.8145 27.5,27.5C 28.1217,26.3734 28.955,25.3734 30,24.5C 30.7796,22.6131 30.6129,20.9464 29.5,19.5 Z"/></g>
<g><path style="opacity:1" fill="#946cb6" d="M 48.5,27.5 C 49.2216,27.9175 49.7216,28.5842 50,29.5C 50.1745,34.3514 50.6745,39.0181 51.5,43.5C 50.1667,45.5 48.5,47.1667 46.5,48.5C 45.8333,48.5 45.1667,48.5 44.5,48.5C 46.118,47.5489 47.4513,46.2156 48.5,44.5C 48.1667,44.1667 47.8333,43.8333 47.5,43.5C 46.1482,44.5244 44.8149,45.5244 43.5,46.5C 43.5,45.8333 43.5,45.1667 43.5,44.5C 44.5045,43.3172 45.3378,41.9839 46,40.5C 45.9689,35.8766 46.8022,31.5432 48.5,27.5 Z"/></g>
<g><path style="opacity:1" fill="#271b32" d="M 44.5,21.5 C 45.075,23.4113 46.075,25.078 47.5,26.5C 46.603,27.5981 45.7697,27.5981 45,26.5C 43.8436,30.4183 43.3436,34.4183 43.5,38.5C 43.0679,39.7095 42.4013,40.7095 41.5,41.5C 40.4196,39.9553 40.4196,38.4553 41.5,37C 40.4911,35.8319 39.4911,34.6652 38.5,33.5C 41.8617,30.5301 42.195,27.3635 39.5,24C 43.3779,23.0514 43.3779,21.8847 39.5,20.5C 41.4385,19.3664 43.1052,19.6997 44.5,21.5 Z"/></g>
<g><path style="opacity:1" fill="#94caf2" d="M 19.5,28.5 C 19.4701,29.4972 19.9701,30.1639 21,30.5C 22.1385,30.0109 23.3052,29.6775 24.5,29.5C 24.3059,31.9118 22.9726,32.9118 20.5,32.5C 20.5,34.1667 20.5,35.8333 20.5,37.5C 19.596,38.209 19.2627,39.209 19.5,40.5C 18.1667,40.5 17.5,39.8333 17.5,38.5C 17.3359,35.8127 17.5026,33.146 18,30.5C 18.2784,29.5842 18.7784,28.9175 19.5,28.5 Z"/></g>
<g><path style="opacity:1" fill="#203d64" d="M 32.5,26.5 C 32.8381,31.8616 32.1714,37.195 30.5,42.5C 29.5416,42.0472 28.7083,41.3805 28,40.5C 27.3333,38.1667 27.3333,35.8333 28,33.5C 30.9156,31.5463 32.4156,29.213 32.5,26.5 Z"/></g>
<g><path style="opacity:1" fill="#513460" d="M 47.5,26.5 C 48.1667,26.5 48.5,26.8333 48.5,27.5C 46.8022,31.5432 45.9689,35.8766 46,40.5C 45.3378,41.9839 44.5045,43.3172 43.5,44.5C 42.6365,45.463 41.9698,45.463 41.5,44.5C 42.7515,42.9991 43.7515,41.3325 44.5,39.5C 44.3764,38.8933 44.0431,38.56 43.5,38.5C 43.3436,34.4183 43.8436,30.4183 45,26.5C 45.7697,27.5981 46.603,27.5981 47.5,26.5 Z"/></g>
<g><path style="opacity:1" fill="#b569ce" d="M 44.5,21.5 C 48.1667,23.8333 51.1667,26.8333 53.5,30.5C 53.8501,35.0309 53.1834,39.3642 51.5,43.5C 50.6745,39.0181 50.1745,34.3514 50,29.5C 49.7216,28.5842 49.2216,27.9175 48.5,27.5C 48.5,26.8333 48.1667,26.5 47.5,26.5C 46.075,25.078 45.075,23.4113 44.5,21.5 Z"/></g>
<g><path style="opacity:0.855" fill="#eaa9f4" d="M 69.5,8.5 C 70.1667,9.5 70.8333,10.5 71.5,11.5C 71.5,11.8333 71.5,12.1667 71.5,12.5C 70.1667,13.1667 70.1667,13.8333 71.5,14.5C 71.5,29.5 71.5,44.5 71.5,59.5C 70.8333,60.5 70.1667,61.5 69.5,62.5C 69.5,44.8333 69.5,27.1667 69.5,9.5C 69.5,9.16667 69.5,8.83333 69.5,8.5 Z"/></g>
<g><path style="opacity:1" fill="#4f85ca" d="M 27.5,27.5 C 26.8346,31.8145 26.168,36.1478 25.5,40.5C 25.5427,41.4164 25.8761,42.0831 26.5,42.5C 27.8706,46.0583 27.204,46.3916 24.5,43.5C 23.8933,43.6236 23.56,43.9569 23.5,44.5C 21.7073,42.5739 20.7073,40.2406 20.5,37.5C 20.5,35.8333 20.5,34.1667 20.5,32.5C 22.9726,32.9118 24.3059,31.9118 24.5,29.5C 25.5,28.8333 26.5,28.1667 27.5,27.5 Z"/></g>
<g><path style="opacity:1" fill="#35333b" d="M 11.5,29.5 C 12.0473,32.5753 13.0473,35.5753 14.5,38.5C 15.1698,36.7086 15.8365,35.0419 16.5,33.5C 16.2155,35.4147 16.5489,37.0813 17.5,38.5C 17.5,39.8333 18.1667,40.5 19.5,40.5C 19.9085,44.5728 21.9085,47.5728 25.5,49.5C 31.1344,52.8284 37.1344,53.3284 43.5,51C 44.9423,50.6232 45.9423,49.7899 46.5,48.5C 48.5,47.1667 50.1667,45.5 51.5,43.5C 53.1834,39.3642 53.8501,35.0309 53.5,30.5C 54.3195,33.3054 54.8195,36.3054 55,39.5C 55.2835,37.1144 56.2835,36.4477 58,37.5C 58.1909,35.2922 58.6909,33.2922 59.5,31.5C 59.5,34.1667 59.5,36.8333 59.5,39.5C 58.9009,42.9631 57.9009,46.2964 56.5,49.5C 53.8333,51.5 51.5,53.8333 49.5,56.5C 46.4553,57.2794 43.7886,58.6127 41.5,60.5C 28.0151,62.5927 18.3484,57.5927 12.5,45.5C 10.463,40.1366 10.1297,34.8033 11.5,29.5 Z"/></g>
<g><path style="opacity:1" fill="#7aecf4" d="M 20.5,37.5 C 20.7073,40.2406 21.7073,42.5739 23.5,44.5C 24.6253,46.1288 25.9586,47.6288 27.5,49C 26.9056,49.4643 26.2389,49.631 25.5,49.5C 21.9085,47.5728 19.9085,44.5728 19.5,40.5C 19.2627,39.209 19.596,38.209 20.5,37.5 Z"/></g>
<g><path style="opacity:1" fill="#e4e3f6" d="M 44.5,48.5 C 42.3023,48.5912 41.9689,47.9245 43.5,46.5C 44.8149,45.5244 46.1482,44.5244 47.5,43.5C 47.8333,43.8333 48.1667,44.1667 48.5,44.5C 47.4513,46.2156 46.118,47.5489 44.5,48.5 Z"/></g>
<g><path style="opacity:1" fill="#bf31ef" d="M 69.5,9.5 C 69.5,27.1667 69.5,44.8333 69.5,62.5C 68.8897,64.4341 67.8897,66.1007 66.5,67.5C 65.9594,64.2336 65.7927,60.9002 66,57.5C 63.6843,55.5296 61.8509,53.1963 60.5,50.5C 59.3112,49.5713 57.9778,49.238 56.5,49.5C 57.9009,46.2964 58.9009,42.9631 59.5,39.5C 60.8064,43.3815 63.473,46.0482 67.5,47.5C 68.499,35.5185 68.8323,23.5185 68.5,11.5C 68.3284,10.5084 68.6618,9.84171 69.5,9.5 Z"/></g>
<g><path style="opacity:1" fill="#47556e" d="M 43.5,38.5 C 44.0431,38.56 44.3764,38.8933 44.5,39.5C 43.7515,41.3325 42.7515,42.9991 41.5,44.5C 41.9698,45.463 42.6365,45.463 43.5,44.5C 43.5,45.1667 43.5,45.8333 43.5,46.5C 41.9689,47.9245 42.3023,48.5912 44.5,48.5C 45.1667,48.5 45.8333,48.5 46.5,48.5C 45.9423,49.7899 44.9423,50.6232 43.5,51C 37.1344,53.3284 31.1344,52.8284 25.5,49.5C 26.2389,49.631 26.9056,49.4643 27.5,49C 25.9586,47.6288 24.6253,46.1288 23.5,44.5C 23.56,43.9569 23.8933,43.6236 24.5,43.5C 27.204,46.3916 27.8706,46.0583 26.5,42.5C 26.4346,42.0618 26.6012,41.7284 27,41.5C 27.8159,42.8228 28.9826,43.4894 30.5,43.5C 34.6483,45.1362 38.315,44.4695 41.5,41.5C 42.4013,40.7095 43.0679,39.7095 43.5,38.5 Z"/></g>
<g><path style="opacity:1" fill="#6e09a2" d="M 56.5,49.5 C 55.1667,52.8333 52.8333,55.1667 49.5,56.5C 51.5,53.8333 53.8333,51.5 56.5,49.5 Z"/></g>
<g><path style="opacity:1" fill="#9d19eb" d="M 56.5,49.5 C 57.9778,49.238 59.3112,49.5713 60.5,50.5C 61.8509,53.1963 63.6843,55.5296 66,57.5C 65.7927,60.9002 65.9594,64.2336 66.5,67.5C 65.3998,68.5585 64.0664,69.3918 62.5,70C 43.9954,70.8288 25.662,70.6621 7.5,69.5C 25.5031,69.6666 43.5031,69.4999 61.5,69C 59.0906,64.7807 57.2573,60.2807 56,55.5C 55.2496,56.1258 54.4162,56.6258 53.5,57C 55.8821,59.5467 56.5488,62.3801 55.5,65.5C 55.2577,61.9072 53.591,59.2406 50.5,57.5C 48.0798,60.0772 45.0798,61.0772 41.5,60.5C 43.7886,58.6127 46.4553,57.2794 49.5,56.5C 52.8333,55.1667 55.1667,52.8333 56.5,49.5 Z"/></g>
<g><path style="opacity:1" fill="#9b15ea" d="M 12.5,45.5 C 18.3484,57.5927 28.0151,62.5927 41.5,60.5C 39.4888,61.8929 37.1554,62.5596 34.5,62.5C 30.8441,61.7142 27.1775,61.5475 23.5,62C 22.3318,63.4056 22.6652,64.5723 24.5,65.5C 23.4716,68.5972 21.805,69.0972 19.5,67C 22.3977,63.488 21.8977,60.6547 18,58.5C 16.8403,60.797 15.8403,60.4637 15,57.5C 11.6454,59.5379 9.81204,62.5379 9.5,66.5C 8.62402,67.2508 7.62402,67.7508 6.5,68C 7.05596,68.3826 7.38929,68.8826 7.5,69.5C 5.97306,69.573 4.97306,68.9063 4.5,67.5C 4.41423,66.5041 4.74756,65.6708 5.5,65C 2.18718,63.0636 1.02051,60.2303 2,56.5C 2.33333,57.1667 2.66667,57.8333 3,58.5C 4.72335,53.0298 7.89002,48.6965 12.5,45.5 Z"/></g>
<g><path style="opacity:1" fill="#9405f4" d="M 7.5,69.5 C 7.38929,68.8826 7.05596,68.3826 6.5,68C 7.62402,67.7508 8.62402,67.2508 9.5,66.5C 9.81204,62.5379 11.6454,59.5379 15,57.5C 15.8403,60.4637 16.8403,60.797 18,58.5C 21.8977,60.6547 22.3977,63.488 19.5,67C 21.805,69.0972 23.4716,68.5972 24.5,65.5C 22.6652,64.5723 22.3318,63.4056 23.5,62C 27.1775,61.5475 30.8441,61.7142 34.5,62.5C 37.1554,62.5596 39.4888,61.8929 41.5,60.5C 45.0798,61.0772 48.0798,60.0772 50.5,57.5C 53.591,59.2406 55.2577,61.9072 55.5,65.5C 56.5488,62.3801 55.8821,59.5467 53.5,57C 54.4162,56.6258 55.2496,56.1258 56,55.5C 57.2573,60.2807 59.0906,64.7807 61.5,69C 43.5031,69.4999 25.5031,69.6666 7.5,69.5 Z"/></g>
</svg>
