<?xml version="1.0" encoding="UTF-8"?>
<!DOCTYPE svg PUBLIC "-//W3C//DTD SVG 1.1//EN" "http://www.w3.org/Graphics/SVG/1.1/DTD/svg11.dtd">
<svg xmlns="http://www.w3.org/2000/svg" version="1.1" width="360px" height="110px" style="shape-rendering:geometricPrecision; text-rendering:geometricPrecision; image-rendering:optimizeQuality; fill-rule:evenodd; clip-rule:evenodd" xmlns:xlink="http://www.w3.org/1999/xlink">
<g><path style="opacity:0.006" fill="#fdfffc" d="M 12.5,2.5 C 12.8966,1.47498 13.5632,1.30831 14.5,2C 13.9056,2.46434 13.2389,2.63101 12.5,2.5 Z"/></g>
<g><path style="opacity:0.004" fill="#fdfffc" d="M 10.5,2.5 C 11.8333,3.16667 11.8333,3.16667 10.5,2.5 Z"/></g>
<g><path style="opacity:0.883" fill="#f8dff8" d="M 94.5,4.5 C 90.2147,3.70509 85.8814,3.37176 81.5,3.5C 61.8333,3.5 42.1667,3.5 22.5,3.5C 19.1401,3.61587 15.8067,3.9492 12.5,4.5C 14.5625,3.22367 16.8958,2.39034 19.5,2C 42.1667,1.33333 64.8333,1.33333 87.5,2C 90.1909,2.15579 92.5242,2.98912 94.5,4.5 Z"/></g>
<g><path style="opacity:0.008" fill="#fdfffc" d="M 10.5,3.5 C 10.5,3.83333 10.5,4.16667 10.5,4.5C 9.82986,4.01865 9.82986,3.68532 10.5,3.5 Z"/></g>
<g><path style="opacity:0.004" fill="#fdfffc" d="M 7.5,4.5 C 8.83333,5.16667 8.83333,5.16667 7.5,4.5 Z"/></g>
<g><path style="opacity:1" fill="#fa9efd" d="M 22.5,3.5 C 42.1667,3.5 61.8333,3.5 81.5,3.5C 78.023,4.3227 74.3563,4.8227 70.5,5C 72.0016,5.58308 73.3349,6.41641 74.5,7.5C 72.7005,10.2672 71.0338,13.1006 69.5,16C 69.7591,17.2613 70.4258,18.2613 71.5,19C 69.6183,19.1981 67.9516,19.6981 66.5,20.5C 58.6181,18.2478 50.6181,17.9145 42.5,19.5C 42.0831,18.8761 41.4164,18.5427 40.5,18.5C 37.9719,19.9415 35.3053,20.4415 32.5,20C 33.1667,19.6667 33.8333,19.3333 34.5,19C 33.0692,18.5348 31.9025,17.7014 31,16.5C 29.5264,13.0431 27.6931,9.87644 25.5,7C 26.3279,6.08529 27.3279,5.41862 28.5,5C 26.2922,4.80912 24.2922,4.30912 22.5,3.5 Z"/></g>
<g><path style="opacity:0.008" fill="#fae2f9" d="M 96.5,5.5 C 99.1667,6.16667 100.833,7.83333 101.5,10.5C 99.5,9.16667 97.8333,7.5 96.5,5.5 Z"/></g>
<g><path style="opacity:0.004" fill="#fefffd" d="M 6.5,7.5 C 5.83333,6.16667 5.83333,6.16667 6.5,7.5 Z"/></g>
<g><path style="opacity:1" fill="#e985f9" d="M 29.5,26.5 C 26.8015,30.1902 24.1348,33.8569 21.5,37.5C 19.411,36.4203 17.7443,34.2536 16.5,31C 11.3973,29.2998 8.7306,25.7998 8.5,20.5C 7.04125,20.5674 5.70792,20.2341 4.5,19.5C 3.49638,41.4732 3.16305,66.1398 3.5,93.5C 2.71003,92.3915 2.21003,91.0581 2,89.5C 1.33333,65.1667 1.33333,40.8333 2,16.5C 3.12197,14.5932 3.95531,12.5932 4.5,10.5C 5.16667,10.1667 5.83333,9.83333 6.5,9.5C 7.83333,8.83333 8.83333,7.83333 9.5,6.5C 11.205,5.46471 12.8716,5.46471 14.5,6.5C 16.191,12.2153 18.691,17.5486 22,22.5C 22.9025,23.7014 24.0692,24.5348 25.5,25C 25.1667,25.3333 24.8333,25.6667 24.5,26C 26.2275,25.4742 27.8941,25.6409 29.5,26.5 Z"/></g>
<g><path style="opacity:0.01" fill="#fcfffc" d="M 4.5,10.5 C 3.47498,10.1034 3.30831,9.43677 4,8.5C 4.46434,9.09442 4.63101,9.76109 4.5,10.5 Z"/></g>
<g><path style="opacity:0.702" fill="#fbdcf9" d="M 9.5,6.5 C 8.83333,7.83333 7.83333,8.83333 6.5,9.5C 6.5,8.83333 6.5,8.16667 6.5,7.5C 7.39105,6.89022 8.39105,6.55688 9.5,6.5 Z"/></g>
<g><path style="opacity:1" fill="#f28dfc" d="M 81.5,3.5 C 85.8814,3.37176 90.2147,3.70509 94.5,4.5C 95.4916,4.32842 96.1583,4.66175 96.5,5.5C 95.5,5.5 94.5,5.5 93.5,5.5C 93.7733,7.45101 93.1066,8.95101 91.5,10C 91.8333,10.3333 92.1667,10.6667 92.5,11C 90.6183,11.1981 88.9516,11.6981 87.5,12.5C 84.5063,17.1802 85.8396,19.8469 91.5,20.5C 88.3593,22.5801 85.3593,24.9134 82.5,27.5C 81.5745,26.3595 80.7412,26.3595 80,27.5C 78.9805,26.3128 77.8139,25.3128 76.5,24.5C 75.8933,24.6236 75.56,24.9569 75.5,25.5C 72.6339,23.5675 69.6339,21.9009 66.5,20.5C 67.9516,19.6981 69.6183,19.1981 71.5,19C 70.4258,18.2613 69.7591,17.2613 69.5,16C 71.0338,13.1006 72.7005,10.2672 74.5,7.5C 73.3349,6.41641 72.0016,5.58308 70.5,5C 74.3563,4.8227 78.023,4.3227 81.5,3.5 Z"/></g>
<g><path style="opacity:0.647" fill="#f9d6f5" d="M 101.5,10.5 C 102.906,10.9731 103.573,11.9731 103.5,13.5C 102.094,13.0269 101.427,12.0269 101.5,10.5 Z"/></g>
<g><path style="opacity:1" fill="#f28bfd" d="M 22.5,3.5 C 24.2922,4.30912 26.2922,4.80912 28.5,5C 27.3279,5.41862 26.3279,6.08529 25.5,7C 27.6931,9.87644 29.5264,13.0431 31,16.5C 31.9025,17.7014 33.0692,18.5348 34.5,19C 33.8333,19.3333 33.1667,19.6667 32.5,20C 35.3053,20.4415 37.9719,19.9415 40.5,18.5C 41.4164,18.5427 42.0831,18.8761 42.5,19.5C 38.012,21.5768 33.6787,23.9102 29.5,26.5C 27.8941,25.6409 26.2275,25.4742 24.5,26C 24.8333,25.6667 25.1667,25.3333 25.5,25C 24.0692,24.5348 22.9025,23.7014 22,22.5C 18.691,17.5486 16.191,12.2153 14.5,6.5C 12.8716,5.46471 11.205,5.46471 9.5,6.5C 9.83333,5.83333 10.1667,5.16667 10.5,4.5C 11.1667,4.5 11.8333,4.5 12.5,4.5C 15.8067,3.9492 19.1401,3.61587 22.5,3.5 Z"/></g>
<g><path style="opacity:1" fill="#66646d" d="M 87.5,12.5 C 93.5824,12.8463 94.9157,15.513 91.5,20.5C 85.8396,19.8469 84.5063,17.1802 87.5,12.5 Z"/></g>
<g><path style="opacity:1" fill="#9878d4" d="M 87.5,14.5 C 88.8734,14.3433 90.2068,14.51 91.5,15C 92.6745,17.8288 91.6745,18.8288 88.5,18C 87.6634,16.9887 87.33,15.8221 87.5,14.5 Z"/></g>
<g><path style="opacity:1" fill="#e269f7" d="M 96.5,5.5 C 97.8333,7.5 99.5,9.16667 101.5,10.5C 101.427,12.0269 102.094,13.0269 103.5,13.5C 104.434,14.5676 104.768,15.901 104.5,17.5C 104.831,42.0057 104.498,66.3391 103.5,90.5C 103.5,85.5 103.5,80.5 103.5,75.5C 103.667,55.4972 103.5,35.4972 103,15.5C 102.667,16.8333 102.333,18.1667 102,19.5C 99.957,20.5794 98.6237,22.246 98,24.5C 94.0841,29.2857 89.5841,32.9523 84.5,35.5C 82.2407,31.5702 79.2407,28.2369 75.5,25.5C 75.56,24.9569 75.8933,24.6236 76.5,24.5C 77.8139,25.3128 78.9805,26.3128 80,27.5C 80.7412,26.3595 81.5745,26.3595 82.5,27.5C 85.3593,24.9134 88.3593,22.5801 91.5,20.5C 94.9157,15.513 93.5824,12.8463 87.5,12.5C 88.9516,11.6981 90.6183,11.1981 92.5,11C 92.1667,10.6667 91.8333,10.3333 91.5,10C 93.1066,8.95101 93.7733,7.45101 93.5,5.5C 94.5,5.5 95.5,5.5 96.5,5.5 Z"/></g>
<g><path style="opacity:1" fill="#d34af1" d="M 103.5,75.5 C 102.883,75.6107 102.383,75.944 102,76.5C 98.8333,72.6667 95.6667,68.8333 92.5,65C 91.0715,64.4209 89.7382,64.5876 88.5,65.5C 88.5,65.1667 88.5,64.8333 88.5,64.5C 89.7145,58.1533 89.7145,51.82 88.5,45.5C 87.7241,41.9475 86.3908,38.6142 84.5,35.5C 89.5841,32.9523 94.0841,29.2857 98,24.5C 98.6237,22.246 99.957,20.5794 102,19.5C 102.333,18.1667 102.667,16.8333 103,15.5C 103.5,35.4972 103.667,55.4972 103.5,75.5 Z"/></g>
<g><path style="opacity:0.911" fill="#fefffe" d="M 187.5,22.5 C 204.474,20.8127 211.474,28.4794 208.5,45.5C 204.5,45.5 200.5,45.5 196.5,45.5C 196.665,41.8183 196.499,38.1516 196,34.5C 194.333,33.1667 192.667,33.1667 191,34.5C 190.178,48.0752 190.344,61.5752 191.5,75C 193.112,75.7203 194.612,75.5536 196,74.5C 196.499,69.5111 196.666,64.5111 196.5,59.5C 195.5,59.5 194.5,59.5 193.5,59.5C 193.5,56.1667 193.5,52.8333 193.5,49.5C 198.5,49.5 203.5,49.5 208.5,49.5C 208.666,58.5062 208.5,67.5062 208,76.5C 205.895,83.6458 201.061,86.9791 193.5,86.5C 185.939,86.9791 181.105,83.6458 179,76.5C 178.333,61.8333 178.333,47.1667 179,32.5C 180.289,27.7209 183.123,24.3875 187.5,22.5 Z"/></g>
<g><path style="opacity:1" fill="#d44bf2" d="M 4.5,19.5 C 5.70792,20.2341 7.04125,20.5674 8.5,20.5C 8.7306,25.7998 11.3973,29.2998 16.5,31C 17.7443,34.2536 19.411,36.4203 21.5,37.5C 17.8793,44.6853 16.5459,52.3519 17.5,60.5C 17.5,61.1667 17.5,61.8333 17.5,62.5C 16.8501,62.1961 16.1835,61.8627 15.5,61.5C 12,65.8333 8.5,70.1667 5,74.5C 4.50006,56.1697 4.33339,37.8364 4.5,19.5 Z"/></g>
<g><path style="opacity:1" fill="#5f5d68" d="M 66.5,20.5 C 69.6339,21.9009 72.6339,23.5675 75.5,25.5C 79.2407,28.2369 82.2407,31.5702 84.5,35.5C 86.3908,38.6142 87.7241,41.9475 88.5,45.5C 86.5214,47.1675 84.188,47.8342 81.5,47.5C 81.7148,45.8212 81.0481,44.8212 79.5,44.5C 73.0193,29.7545 61.686,23.5878 45.5,26C 34.5717,30.0971 28.2383,37.9304 26.5,49.5C 24.0576,49.3537 23.3909,50.187 24.5,52C 23.3474,53.883 21.6807,54.7163 19.5,54.5C 19.6641,51.8127 19.4974,49.146 19,46.5C 18.5008,51.1548 18.3342,55.8215 18.5,60.5C 18.1667,60.5 17.8333,60.5 17.5,60.5C 16.5459,52.3519 17.8793,44.6853 21.5,37.5C 24.1348,33.8569 26.8015,30.1902 29.5,26.5C 33.6787,23.9102 38.012,21.5768 42.5,19.5C 50.6181,17.9145 58.6181,18.2478 66.5,20.5 Z"/></g>
<g><path style="opacity:0.932" fill="#fefffe" d="M 120.5,23.5 C 125.5,23.5 130.5,23.5 135.5,23.5C 139.05,44.134 142.383,64.8006 145.5,85.5C 141.5,85.5 137.5,85.5 133.5,85.5C 132.833,81.1667 132.167,76.8333 131.5,72.5C 129.076,72.1924 126.743,72.5258 124.5,73.5C 123.402,77.4233 122.735,81.4233 122.5,85.5C 118.5,85.5 114.5,85.5 110.5,85.5C 113.186,64.7182 116.519,44.0515 120.5,23.5 Z M 127.5,47.5 C 128.539,52.229 129.539,57.0624 130.5,62C 128.741,62.7975 127.074,62.6309 125.5,61.5C 126.632,56.9087 127.299,52.2421 127.5,47.5 Z"/></g>
<g><path style="opacity:0.954" fill="#fefffe" d="M 146.5,23.5 C 150.5,23.5 154.5,23.5 158.5,23.5C 160.014,31.5561 161.847,39.5561 164,47.5C 164.5,39.5069 164.666,31.5069 164.5,23.5C 168.167,23.5 171.833,23.5 175.5,23.5C 175.5,44.1667 175.5,64.8333 175.5,85.5C 171.563,85.7935 167.73,85.4601 164,84.5C 161.842,76.2033 159.842,67.8699 158,59.5C 157.5,68.1603 157.334,76.8269 157.5,85.5C 153.833,85.5 150.167,85.5 146.5,85.5C 146.5,64.8333 146.5,44.1667 146.5,23.5 Z"/></g>
<g><path style="opacity:0.924" fill="#fefffe" d="M 211.5,23.5 C 220.5,23.5 229.5,23.5 238.5,23.5C 238.5,26.8333 238.5,30.1667 238.5,33.5C 233.5,33.5 228.5,33.5 223.5,33.5C 223.5,38.8333 223.5,44.1667 223.5,49.5C 227.833,49.5 232.167,49.5 236.5,49.5C 236.5,52.8333 236.5,56.1667 236.5,59.5C 232.167,59.5 227.833,59.5 223.5,59.5C 223.5,64.5 223.5,69.5 223.5,74.5C 228.5,74.5 233.5,74.5 238.5,74.5C 238.5,78.1667 238.5,81.8333 238.5,85.5C 229.5,85.5 220.5,85.5 211.5,85.5C 211.5,64.8333 211.5,44.1667 211.5,23.5 Z"/></g>
<g><path style="opacity:0.913" fill="#fefffe" d="M 240.5,23.5 C 244.5,23.5 248.5,23.5 252.5,23.5C 252.5,40.5 252.5,57.5 252.5,74.5C 257.5,74.5 262.5,74.5 267.5,74.5C 267.5,78.1667 267.5,81.8333 267.5,85.5C 258.5,85.5 249.5,85.5 240.5,85.5C 240.5,64.8333 240.5,44.1667 240.5,23.5 Z"/></g>
<g><path style="opacity:0.9" fill="#fefffe" d="M 268.5,23.5 C 272.5,23.5 276.5,23.5 280.5,23.5C 280.5,44.1667 280.5,64.8333 280.5,85.5C 276.5,85.5 272.5,85.5 268.5,85.5C 268.5,64.8333 268.5,44.1667 268.5,23.5 Z"/></g>
<g><path style="opacity:0.954" fill="#fefffe" d="M 284.5,23.5 C 288.5,23.5 292.5,23.5 296.5,23.5C 298.014,31.5561 299.847,39.5561 302,47.5C 302.5,39.5069 302.666,31.5069 302.5,23.5C 306.167,23.5 309.833,23.5 313.5,23.5C 313.5,44.1667 313.5,64.8333 313.5,85.5C 309.563,85.7935 305.73,85.4601 302,84.5C 299.842,76.2033 297.842,67.8699 296,59.5C 295.5,68.1603 295.334,76.8269 295.5,85.5C 291.833,85.5 288.167,85.5 284.5,85.5C 284.5,64.8333 284.5,44.1667 284.5,23.5 Z"/></g>
<g><path style="opacity:0.92" fill="#fefffe" d="M 317.5,23.5 C 321.5,23.5 325.5,23.5 329.5,23.5C 329.334,30.175 329.5,36.8417 330,43.5C 332.468,36.9053 334.635,30.2386 336.5,23.5C 340.884,23.1744 345.217,23.5078 349.5,24.5C 345.303,34.4259 341.303,44.4259 337.5,54.5C 341.303,64.5741 345.303,74.5741 349.5,84.5C 345.217,85.4922 340.884,85.8256 336.5,85.5C 334.84,78.6858 332.673,72.0191 330,65.5C 329.5,72.1583 329.334,78.825 329.5,85.5C 325.5,85.5 321.5,85.5 317.5,85.5C 317.5,64.8333 317.5,44.1667 317.5,23.5 Z"/></g>
<g><path style="opacity:0.306" fill="#f0e8f0" d="M 104.5,17.5 C 105.663,41.9966 105.83,66.6632 105,91.5C 104.722,92.4158 104.222,93.0825 103.5,93.5C 103.5,92.5 103.5,91.5 103.5,90.5C 104.498,66.3391 104.831,42.0057 104.5,17.5 Z"/></g>
<g><path style="opacity:1" fill="#121319" d="M 79.5,44.5 C 79.5,44.8333 79.5,45.1667 79.5,45.5C 78.8333,44.8333 78.1667,44.1667 77.5,43.5C 76.5733,39.575 74.2399,36.9083 70.5,35.5C 69.5,34.8333 68.5,34.1667 67.5,33.5C 65.8236,32.2897 64.4903,32.7897 63.5,35C 64.1667,35.6667 64.8333,36.3333 65.5,37C 64.1667,37 62.8333,37 61.5,37C 62.8045,37.804 63.4712,38.9707 63.5,40.5C 62.6667,43.8333 61.8333,47.1667 61,50.5C 60.2825,49.5494 59.4491,49.3828 58.5,50C 59.8333,52.3333 59.8333,54.6667 58.5,57C 59.5442,59.2866 60.5442,61.4533 61.5,63.5C 55.5327,67.7886 49.8661,67.4553 44.5,62.5C 44.5,62.1667 44.5,61.8333 44.5,61.5C 45.3764,61.6309 46.0431,61.2975 46.5,60.5C 45.7517,58.5841 45.7517,56.5841 46.5,54.5C 47.5,54.5 48.5,54.5 49.5,54.5C 49.6204,52.8014 49.9537,51.1347 50.5,49.5C 50.5466,47.9623 49.8799,46.9623 48.5,46.5C 49.1408,45.5178 49.8075,44.5178 50.5,43.5C 49.9747,42.8076 49.3081,42.3076 48.5,42C 49.9465,38.4867 51.2799,34.9867 52.5,31.5C 56.2364,31.3399 56.2364,30.5066 52.5,29C 50.2884,28.2109 48.2884,28.3775 46.5,29.5C 38.9862,31.6808 33.6529,36.3475 30.5,43.5C 29.0937,43.9731 28.427,44.9731 28.5,46.5C 26.7982,53.3067 27.4649,59.9734 30.5,66.5C 28.3862,65.6398 27.2195,63.9732 27,61.5C 26.5012,57.5138 26.3345,53.5138 26.5,49.5C 28.2383,37.9304 34.5717,30.0971 45.5,26C 61.686,23.5878 73.0193,29.7545 79.5,44.5 Z"/></g>
<g><path style="opacity:1" fill="#5b356a" d="M 70.5,35.5 C 74.2399,36.9083 76.5733,39.575 77.5,43.5C 75.194,40.946 72.8606,38.2793 70.5,35.5 Z"/></g>
<g><path style="opacity:0.998" fill="#ecf4f9" d="M 46.5,29.5 C 47.1667,29.5 47.8333,29.5 48.5,29.5C 47.6106,33.5615 45.9439,37.2282 43.5,40.5C 41.7041,41.7927 40.0375,43.2927 38.5,45C 37.1667,45.1667 35.8333,45.3333 34.5,45.5C 32.6672,45.4146 31.3339,44.7479 30.5,43.5C 33.6529,36.3475 38.9862,31.6808 46.5,29.5 Z"/></g>
<g><path style="opacity:1" fill="#495d78" d="M 46.5,29.5 C 48.2884,28.3775 50.2884,28.2109 52.5,29C 56.2364,30.5066 56.2364,31.3399 52.5,31.5C 51.2799,34.9867 49.9465,38.4867 48.5,42C 49.3081,42.3076 49.9747,42.8076 50.5,43.5C 49.8075,44.5178 49.1408,45.5178 48.5,46.5C 47.596,47.209 47.2627,48.209 47.5,49.5C 45.7839,49.6287 44.1172,49.962 42.5,50.5C 42.3398,48.8008 42.5065,47.1341 43,45.5C 45.5349,40.3137 48.0349,35.147 50.5,30C 49.9056,29.5357 49.2389,29.369 48.5,29.5C 47.8333,29.5 47.1667,29.5 46.5,29.5 Z"/></g>
<g><path style="opacity:1" fill="#97c3f4" d="M 43.5,40.5 C 41.5,43.5 39.5,46.5 37.5,49.5C 35.8829,50.5893 35.0496,52.256 35,54.5C 34.6667,52.8333 34.3333,51.1667 34,49.5C 32.9571,52.7568 32.4571,56.0901 32.5,59.5C 31.6762,55.6877 31.1762,51.6877 31,47.5C 30.4954,49.5183 29.9954,51.5183 29.5,53.5C 28.5318,51.3926 28.1984,49.0593 28.5,46.5C 28.427,44.9731 29.0937,43.9731 30.5,43.5C 31.3339,44.7479 32.6672,45.4146 34.5,45.5C 35.8333,45.3333 37.1667,45.1667 38.5,45C 40.0375,43.2927 41.7041,41.7927 43.5,40.5 Z"/></g>
<g><path style="opacity:1" fill="#44434b" d="M 79.5,44.5 C 81.0481,44.8212 81.7148,45.8212 81.5,47.5C 84.188,47.8342 86.5214,47.1675 88.5,45.5C 89.7145,51.82 89.7145,58.1533 88.5,64.5C 87.3263,65.5137 86.6596,66.847 86.5,68.5C 85.2947,67.3281 85.2947,65.9948 86.5,64.5C 85.675,63.6143 84.675,63.281 83.5,63.5C 82.8333,66.1667 82.1667,68.8333 81.5,71.5C 80.5,71.5 79.5,71.5 78.5,71.5C 78.5,72.5 78.5,73.5 78.5,74.5C 77.1779,74.67 76.0113,74.3366 75,73.5C 74.1841,74.8228 73.0174,75.4894 71.5,75.5C 75.4381,71.5614 78.1048,66.8947 79.5,61.5C 79.5,56.1667 79.5,50.8333 79.5,45.5C 79.5,45.1667 79.5,44.8333 79.5,44.5 Z"/></g>
<g><path style="opacity:1" fill="#3676ca" d="M 28.5,46.5 C 28.1984,49.0593 28.5318,51.3926 29.5,53.5C 28.9624,58.2354 29.9624,62.5687 32.5,66.5C 31.8333,66.5 31.1667,66.5 30.5,66.5C 27.4649,59.9734 26.7982,53.3067 28.5,46.5 Z"/></g>
<g><path style="opacity:1" fill="#271b32" d="M 67.5,33.5 C 67.0618,33.4346 66.7284,33.6012 66.5,34C 67.7101,35.0391 68.7101,36.2058 69.5,37.5C 69.6567,38.8734 69.49,40.2068 69,41.5C 68.3457,40.3044 67.8457,40.3044 67.5,41.5C 68.5617,44.1029 68.7284,46.7695 68,49.5C 67.6667,49.1667 67.3333,48.8333 67,48.5C 66.502,51.4816 66.3354,54.4816 66.5,57.5C 64.8333,59.5 63.1667,61.5 61.5,63.5C 60.5442,61.4533 59.5442,59.2866 58.5,57C 59.8333,54.6667 59.8333,52.3333 58.5,50C 59.4491,49.3828 60.2825,49.5494 61,50.5C 61.8333,47.1667 62.6667,43.8333 63.5,40.5C 63.4712,38.9707 62.8045,37.804 61.5,37C 62.8333,37 64.1667,37 65.5,37C 64.8333,36.3333 64.1667,35.6667 63.5,35C 64.4903,32.7897 65.8236,32.2897 67.5,33.5 Z"/></g>
<g><path style="opacity:1" fill="#ba6ed2" d="M 67.5,33.5 C 68.5,34.1667 69.5,34.8333 70.5,35.5C 72.8606,38.2793 75.194,40.946 77.5,43.5C 78.1667,44.1667 78.8333,44.8333 79.5,45.5C 79.5,50.8333 79.5,56.1667 79.5,61.5C 78.2632,62.9649 77.2632,64.6316 76.5,66.5C 75.8391,59.1904 75.1724,51.857 74.5,44.5C 73.5667,41.6298 71.9,39.2964 69.5,37.5C 68.7101,36.2058 67.7101,35.0391 66.5,34C 66.7284,33.6012 67.0618,33.4346 67.5,33.5 Z"/></g>
<g><path style="opacity:1" fill="#4770a3" d="M 48.5,29.5 C 49.2389,29.369 49.9056,29.5357 50.5,30C 48.0349,35.147 45.5349,40.3137 43,45.5C 42.5065,47.1341 42.3398,48.8008 42.5,50.5C 41.3622,53.3035 41.1955,56.3035 42,59.5C 42.7083,60.3805 43.5416,61.0472 44.5,61.5C 44.5,61.8333 44.5,62.1667 44.5,62.5C 43.1529,63.1712 41.9862,63.1712 41,62.5C 40.5357,63.0944 40.369,63.7611 40.5,64.5C 39.207,63.158 38.3736,61.4913 38,59.5C 37.5017,56.1832 37.335,52.8499 37.5,49.5C 39.5,46.5 41.5,43.5 43.5,40.5C 45.9439,37.2282 47.6106,33.5615 48.5,29.5 Z"/></g>
<g><path style="opacity:1" fill="#1f4271" d="M 48.5,46.5 C 49.8799,46.9623 50.5466,47.9623 50.5,49.5C 49.9537,51.1347 49.6204,52.8014 49.5,54.5C 48.5,54.5 47.5,54.5 46.5,54.5C 45.7517,56.5841 45.7517,58.5841 46.5,60.5C 46.0431,61.2975 45.3764,61.6309 44.5,61.5C 43.5416,61.0472 42.7083,60.3805 42,59.5C 41.1955,56.3035 41.3622,53.3035 42.5,50.5C 44.1172,49.962 45.7839,49.6287 47.5,49.5C 47.2627,48.209 47.596,47.209 48.5,46.5 Z"/></g>
<g><path style="opacity:1" fill="#5392df" d="M 37.5,49.5 C 37.335,52.8499 37.5017,56.1832 38,59.5C 38.3736,61.4913 39.207,63.158 40.5,64.5C 40.631,65.2389 40.4643,65.9056 40,66.5C 38,65.8333 36.6667,64.5 36,62.5C 35.5172,63.448 35.3505,64.448 35.5,65.5C 33.461,64.089 32.461,62.089 32.5,59.5C 32.4571,56.0901 32.9571,52.7568 34,49.5C 34.3333,51.1667 34.6667,52.8333 35,54.5C 35.0496,52.256 35.8829,50.5893 37.5,49.5 Z"/></g>
<g><path style="opacity:1" fill="#5d3a6c" d="M 69.5,37.5 C 71.9,39.2964 73.5667,41.6298 74.5,44.5C 74.3146,46.1958 73.4813,47.5291 72,48.5C 71.7599,52.2519 71.2599,55.9186 70.5,59.5C 69.5,60.1667 68.5,60.8333 67.5,61.5C 67.7678,59.901 67.4345,58.5676 66.5,57.5C 66.3354,54.4816 66.502,51.4816 67,48.5C 67.3333,48.8333 67.6667,49.1667 68,49.5C 68.7284,46.7695 68.5617,44.1029 67.5,41.5C 67.8457,40.3044 68.3457,40.3044 69,41.5C 69.49,40.2068 69.6567,38.8734 69.5,37.5 Z"/></g>
<g><path style="opacity:1" fill="#9971bd" d="M 74.5,44.5 C 75.1724,51.857 75.8391,59.1904 76.5,66.5C 75.4884,67.8717 74.4884,69.205 73.5,70.5C 72.1667,70.8333 70.8333,71.1667 69.5,71.5C 72.0994,68.6726 73.266,65.3393 73,61.5C 71.5325,64.7874 69.3659,67.4541 66.5,69.5C 66.0623,68.4937 65.3957,68.4937 64.5,69.5C 64.0618,69.5654 63.7284,69.3988 63.5,69C 66.8483,66.4986 69.1816,63.3319 70.5,59.5C 71.2599,55.9186 71.7599,52.2519 72,48.5C 73.4813,47.5291 74.3146,46.1958 74.5,44.5 Z"/></g>
<g><path style="opacity:1" fill="#44444d" d="M 26.5,49.5 C 26.3345,53.5138 26.5012,57.5138 27,61.5C 27.2195,63.9732 28.3862,65.6398 30.5,66.5C 31.1667,66.5 31.8333,66.5 32.5,66.5C 34.1667,70.1667 36.8333,72.8333 40.5,74.5C 41.5,75.1667 42.5,75.8333 43.5,76.5C 38.7797,76.2254 38.4463,77.0588 42.5,79C 52.7426,81.8439 62.4092,80.6773 71.5,75.5C 69.4223,78.0507 66.7556,79.884 63.5,81C 48.2479,85.2843 36.4146,80.7843 28,67.5C 28,68.8333 28,70.1667 28,71.5C 26.6667,70.1667 25.3333,70.1667 24,71.5C 23.1363,68.8912 21.9697,67.2246 20.5,66.5C 19.2616,64.7857 18.595,62.7857 18.5,60.5C 18.3342,55.8215 18.5008,51.1548 19,46.5C 19.4974,49.146 19.6641,51.8127 19.5,54.5C 21.6807,54.7163 23.3474,53.883 24.5,52C 23.3909,50.187 24.0576,49.3537 26.5,49.5 Z"/></g>
<g><path style="opacity:1" fill="#7ef0f5" d="M 32.5,59.5 C 32.461,62.089 33.461,64.089 35.5,65.5C 37.0713,68.7441 39.4046,71.4108 42.5,73.5C 42.0431,74.2975 41.3764,74.6309 40.5,74.5C 36.8333,72.8333 34.1667,70.1667 32.5,66.5C 29.9624,62.5687 28.9624,58.2354 29.5,53.5C 29.9954,51.5183 30.4954,49.5183 31,47.5C 31.1762,51.6877 31.6762,55.6877 32.5,59.5 Z"/></g>
<g><path style="opacity:0.993" fill="#ebe8f9" d="M 69.5,71.5 C 68.1667,71.5 66.8333,71.5 65.5,71.5C 65.8333,70.8333 66.1667,70.1667 66.5,69.5C 69.3659,67.4541 71.5325,64.7874 73,61.5C 73.266,65.3393 72.0994,68.6726 69.5,71.5 Z"/></g>
<g><path style="opacity:1" fill="#8c1db8" d="M 17.5,60.5 C 17.8333,60.5 18.1667,60.5 18.5,60.5C 18.595,62.7857 19.2616,64.7857 20.5,66.5C 22.985,73.3053 26.985,78.972 32.5,83.5C 31.448,83.6495 30.448,83.4828 29.5,83C 27,79.1667 23.8333,76 20,73.5C 19.5172,72.552 19.3505,71.552 19.5,70.5C 17.7739,68.1799 17.1072,65.5133 17.5,62.5C 17.5,61.8333 17.5,61.1667 17.5,60.5 Z"/></g>
<g><path style="opacity:1" fill="#4e5c7b" d="M 66.5,57.5 C 67.4345,58.5676 67.7678,59.901 67.5,61.5C 68.5,60.8333 69.5,60.1667 70.5,59.5C 69.1816,63.3319 66.8483,66.4986 63.5,69C 63.7284,69.3988 64.0618,69.5654 64.5,69.5C 61.3616,71.9613 57.6949,72.9613 53.5,72.5C 49.9657,72.6799 46.6324,72.0133 43.5,70.5C 43.1667,70.6667 42.8333,70.8333 42.5,71C 44.4386,71.9078 45.4386,73.4078 45.5,75.5C 52.3825,75.108 59.0491,73.7747 65.5,71.5C 66.8333,71.5 68.1667,71.5 69.5,71.5C 70.8333,71.1667 72.1667,70.8333 73.5,70.5C 70.8126,74.1823 67.1459,76.349 62.5,77C 56.0853,77.7902 49.752,77.6235 43.5,76.5C 42.5,75.8333 41.5,75.1667 40.5,74.5C 41.3764,74.6309 42.0431,74.2975 42.5,73.5C 39.4046,71.4108 37.0713,68.7441 35.5,65.5C 35.3505,64.448 35.5172,63.448 36,62.5C 36.6667,64.5 38,65.8333 40,66.5C 40.4643,65.9056 40.631,65.2389 40.5,64.5C 40.369,63.7611 40.5357,63.0944 41,62.5C 41.9862,63.1712 43.1529,63.1712 44.5,62.5C 49.8661,67.4553 55.5327,67.7886 61.5,63.5C 63.1667,61.5 64.8333,59.5 66.5,57.5 Z"/></g>
<g><path style="opacity:1" fill="#242430" d="M 67.5,61.5 C 62.5099,70.5631 55.1766,72.8964 45.5,68.5C 49.9953,68.5202 54.662,68.3535 59.5,68C 62.3307,65.9993 64.9974,63.8327 67.5,61.5 Z"/></g>
<g><path style="opacity:1" fill="#1f212f" d="M 79.5,61.5 C 78.1048,66.8947 75.4381,71.5614 71.5,75.5C 62.4092,80.6773 52.7426,81.8439 42.5,79C 38.4463,77.0588 38.7797,76.2254 43.5,76.5C 49.752,77.6235 56.0853,77.7902 62.5,77C 67.1459,76.349 70.8126,74.1823 73.5,70.5C 74.4884,69.205 75.4884,67.8717 76.5,66.5C 77.2632,64.6316 78.2632,62.9649 79.5,61.5 Z"/></g>
<g><path style="opacity:1" fill="#c035f2" d="M 4.5,19.5 C 4.33339,37.8364 4.50006,56.1697 5,74.5C 8.5,70.1667 12,65.8333 15.5,61.5C 16.1835,61.8627 16.8501,62.1961 17.5,62.5C 17.1072,65.5133 17.7739,68.1799 19.5,70.5C 11.4138,77.4394 7.08047,86.2727 6.5,97C 7.02527,97.6924 7.69194,98.1924 8.5,98.5C 9.24325,97.0921 10.0766,95.7588 11,94.5C 10.1941,97.171 10.3607,99.8377 11.5,102.5C 7.43509,100.767 4.76842,97.7671 3.5,93.5C 3.16305,66.1398 3.49638,41.4732 4.5,19.5 Z"/></g>
<g><path style="opacity:1" fill="#2b2b2f" d="M 86.5,68.5 C 82.0761,77.9251 75.0761,84.5918 65.5,88.5C 53.7556,91.0146 42.7556,89.3479 32.5,83.5C 26.985,78.972 22.985,73.3053 20.5,66.5C 21.9697,67.2246 23.1363,68.8912 24,71.5C 25.3333,70.1667 26.6667,70.1667 28,71.5C 28,70.1667 28,68.8333 28,67.5C 36.4146,80.7843 48.2479,85.2843 63.5,81C 66.7556,79.884 69.4223,78.0507 71.5,75.5C 73.0174,75.4894 74.1841,74.8228 75,73.5C 76.0113,74.3366 77.1779,74.67 78.5,74.5C 78.5,73.5 78.5,72.5 78.5,71.5C 79.5,71.5 80.5,71.5 81.5,71.5C 82.1667,68.8333 82.8333,66.1667 83.5,63.5C 84.675,63.281 85.675,63.6143 86.5,64.5C 85.2947,65.9948 85.2947,67.3281 86.5,68.5 Z"/></g>
<g><path style="opacity:1" fill="#303643" d="M 66.5,69.5 C 66.1667,70.1667 65.8333,70.8333 65.5,71.5C 59.0491,73.7747 52.3825,75.108 45.5,75.5C 45.4386,73.4078 44.4386,71.9078 42.5,71C 42.8333,70.8333 43.1667,70.6667 43.5,70.5C 46.6324,72.0133 49.9657,72.6799 53.5,72.5C 57.6949,72.9613 61.3616,71.9613 64.5,69.5C 65.3957,68.4937 66.0623,68.4937 66.5,69.5 Z"/></g>
<g><path style="opacity:1" fill="#be37f1" d="M 103.5,75.5 C 103.5,80.5 103.5,85.5 103.5,90.5C 103.5,91.5 103.5,92.5 103.5,93.5C 103.155,96.1979 101.822,98.1979 99.5,99.5C 99.2969,97.9557 98.6302,96.6223 97.5,95.5C 98.8333,95.5 100.167,95.5 101.5,95.5C 100.833,93.1667 100.167,90.8333 99.5,88.5C 100.282,86.6707 99.6157,85.1707 97.5,84C 97.9574,83.586 98.2907,83.086 98.5,82.5C 94.9855,79.4923 92.4855,75.8257 91,71.5C 89.8545,72.6843 88.6879,72.6843 87.5,71.5C 88.1495,69.5648 88.4828,67.5648 88.5,65.5C 89.7382,64.5876 91.0715,64.4209 92.5,65C 95.6667,68.8333 98.8333,72.6667 102,76.5C 102.383,75.944 102.883,75.6107 103.5,75.5 Z"/></g>
<g><path style="opacity:1" fill="#7608b6" d="M 88.5,64.5 C 88.5,64.8333 88.5,65.1667 88.5,65.5C 88.4828,67.5648 88.1495,69.5648 87.5,71.5C 85.8474,74.1305 84.1807,76.7972 82.5,79.5C 81.3747,81.1288 80.0414,82.6288 78.5,84C 73.6788,87.5822 68.3454,89.7489 62.5,90.5C 63.5,89.8333 64.5,89.1667 65.5,88.5C 75.0761,84.5918 82.0761,77.9251 86.5,68.5C 86.6596,66.847 87.3263,65.5137 88.5,64.5 Z"/></g>
<g><path style="opacity:1" fill="#a51dee" d="M 19.5,70.5 C 19.3505,71.552 19.5172,72.552 20,73.5C 23.8333,76 27,79.1667 29.5,83C 30.448,83.4828 31.448,83.6495 32.5,83.5C 32.369,84.2389 32.5357,84.9056 33,85.5C 34.6516,86.3994 36.1516,87.3994 37.5,88.5C 35.6916,88.5086 34.0249,88.0086 32.5,87C 28.8201,83.4506 24.8201,80.6172 20.5,78.5C 20.6646,81.5184 20.498,84.5184 20,87.5C 18.6667,88.1667 17.6667,89.1667 17,90.5C 15.3562,94.2197 14.1895,98.053 13.5,102C 14.8333,102.333 16.1667,102.667 17.5,103C 41.8571,103.814 66.1905,103.647 90.5,102.5C 91.91,102.132 92.91,101.299 93.5,100C 92,99.1667 90.8333,98 90,96.5C 88.5588,91.5072 87.2254,86.5072 86,81.5C 85.1841,80.1772 84.0174,79.5106 82.5,79.5C 84.1807,76.7972 85.8474,74.1305 87.5,71.5C 88.6879,72.6843 89.8545,72.6843 91,71.5C 92.4855,75.8257 94.9855,79.4923 98.5,82.5C 98.2907,83.086 97.9574,83.586 97.5,84C 99.6157,85.1707 100.282,86.6707 99.5,88.5C 100.167,90.8333 100.833,93.1667 101.5,95.5C 100.167,95.5 98.8333,95.5 97.5,95.5C 98.6302,96.6223 99.2969,97.9557 99.5,99.5C 98.1064,101.708 96.1064,103.208 93.5,104C 66.8333,104.667 40.1667,104.667 13.5,104C 12.5842,103.722 11.9175,103.222 11.5,102.5C 10.3607,99.8377 10.1941,97.171 11,94.5C 10.0766,95.7588 9.24325,97.0921 8.5,98.5C 7.69194,98.1924 7.02527,97.6924 6.5,97C 7.08047,86.2727 11.4138,77.4394 19.5,70.5 Z"/></g>
<g><path style="opacity:1" fill="#9607f3" d="M 37.5,88.5 C 39.8333,89.1667 42.1667,89.8333 44.5,90.5C 44.9175,91.2216 45.5842,91.7216 46.5,92C 49.1667,92.1667 51.8333,92.3333 54.5,92.5C 57.5902,92.4783 60.2568,91.8117 62.5,90.5C 68.3454,89.7489 73.6788,87.5822 78.5,84C 80.0414,82.6288 81.3747,81.1288 82.5,79.5C 84.0174,79.5106 85.1841,80.1772 86,81.5C 87.2254,86.5072 88.5588,91.5072 90,96.5C 90.8333,98 92,99.1667 93.5,100C 92.91,101.299 91.91,102.132 90.5,102.5C 66.1905,103.647 41.8571,103.814 17.5,103C 16.1667,102.667 14.8333,102.333 13.5,102C 14.1895,98.053 15.3562,94.2197 17,90.5C 17.6667,89.1667 18.6667,88.1667 20,87.5C 20.498,84.5184 20.6646,81.5184 20.5,78.5C 24.8201,80.6172 28.8201,83.4506 32.5,87C 34.0249,88.0086 35.6916,88.5086 37.5,88.5 Z"/></g>
<g><path style="opacity:1" fill="#7100bb" d="M 44.5,90.5 C 50.5,90.5 56.5,90.5 62.5,90.5C 60.2568,91.8117 57.5902,92.4783 54.5,92.5C 51.8333,92.3333 49.1667,92.1667 46.5,92C 45.5842,91.7216 44.9175,91.2216 44.5,90.5 Z"/></g>
<g><path style="opacity:1" fill="#46036e" d="M 32.5,83.5 C 42.7556,89.3479 53.7556,91.0146 65.5,88.5C 64.5,89.1667 63.5,89.8333 62.5,90.5C 56.5,90.5 50.5,90.5 44.5,90.5C 42.1667,89.8333 39.8333,89.1667 37.5,88.5C 36.1516,87.3994 34.6516,86.3994 33,85.5C 32.5357,84.9056 32.369,84.2389 32.5,83.5 Z"/></g>
</svg>
